<svg xmlns="http://www.w3.org/2000/svg" xmlns:xlink="http://www.w3.org/1999/xlink" width="182" zoomAndPan="magnify" viewBox="0 0 136.5 161.999997" height="216" preserveAspectRatio="xMidYMid meet" version="1.0"><defs><g/><clipPath id="c1b27388a6"><path d="M 1.292969 23.835938 L 111.136719 23.835938 L 111.136719 133.679688 L 1.292969 133.679688 Z M 1.292969 23.835938 " clip-rule="nonzero"/></clipPath><clipPath id="09de30add2"><path d="M 56.214844 23.835938 C 25.882812 23.835938 1.292969 48.425781 1.292969 78.757812 C 1.292969 109.089844 25.882812 133.679688 56.214844 133.679688 C 86.546875 133.679688 111.136719 109.089844 111.136719 78.757812 C 111.136719 48.425781 86.546875 23.835938 56.214844 23.835938 Z M 56.214844 23.835938 " clip-rule="nonzero"/></clipPath><linearGradient x1="-0.000000125602" gradientTransform="matrix(0.42908, 0, 0, 0.42908, 1.293434, 23.836025)" y1="0" x2="255.999995" gradientUnits="userSpaceOnUse" y2="0" id="2dd18e08f6"><stop stop-opacity="1" stop-color="rgb(100%, 39.99939%, 76.899719%)" offset="0"/><stop stop-opacity="1" stop-color="rgb(100%, 40.182495%, 76.734924%)" offset="0.0078125"/><stop stop-opacity="1" stop-color="rgb(100%, 40.550232%, 76.40686%)" offset="0.015625"/><stop stop-opacity="1" stop-color="rgb(100%, 40.917969%, 76.078796%)" offset="0.0234375"/><stop stop-opacity="1" stop-color="rgb(100%, 41.287231%, 75.750732%)" offset="0.03125"/><stop stop-opacity="1" stop-color="rgb(100%, 41.654968%, 75.422668%)" offset="0.0390625"/><stop stop-opacity="1" stop-color="rgb(100%, 42.022705%, 75.093079%)" offset="0.046875"/><stop stop-opacity="1" stop-color="rgb(100%, 42.390442%, 74.765015%)" offset="0.0546875"/><stop stop-opacity="1" stop-color="rgb(100%, 42.758179%, 74.436951%)" offset="0.0625"/><stop stop-opacity="1" stop-color="rgb(100%, 43.125916%, 74.108887%)" offset="0.0703125"/><stop stop-opacity="1" stop-color="rgb(100%, 43.493652%, 73.780823%)" offset="0.078125"/><stop stop-opacity="1" stop-color="rgb(100%, 43.862915%, 73.452759%)" offset="0.0859375"/><stop stop-opacity="1" stop-color="rgb(100%, 44.230652%, 73.124695%)" offset="0.09375"/><stop stop-opacity="1" stop-color="rgb(100%, 44.598389%, 72.796631%)" offset="0.101562"/><stop stop-opacity="1" stop-color="rgb(100%, 44.966125%, 72.468567%)" offset="0.109375"/><stop stop-opacity="1" stop-color="rgb(100%, 45.333862%, 72.140503%)" offset="0.117188"/><stop stop-opacity="1" stop-color="rgb(100%, 45.701599%, 71.812439%)" offset="0.125"/><stop stop-opacity="1" stop-color="rgb(100%, 46.069336%, 71.484375%)" offset="0.132812"/><stop stop-opacity="1" stop-color="rgb(100%, 46.438599%, 71.156311%)" offset="0.140625"/><stop stop-opacity="1" stop-color="rgb(100%, 46.806335%, 70.828247%)" offset="0.148438"/><stop stop-opacity="1" stop-color="rgb(100%, 47.174072%, 70.500183%)" offset="0.15625"/><stop stop-opacity="1" stop-color="rgb(100%, 47.541809%, 70.172119%)" offset="0.164063"/><stop stop-opacity="1" stop-color="rgb(100%, 47.909546%, 69.844055%)" offset="0.171875"/><stop stop-opacity="1" stop-color="rgb(100%, 48.277283%, 69.515991%)" offset="0.179688"/><stop stop-opacity="1" stop-color="rgb(100%, 48.646545%, 69.187927%)" offset="0.1875"/><stop stop-opacity="1" stop-color="rgb(100%, 49.014282%, 68.859863%)" offset="0.195313"/><stop stop-opacity="1" stop-color="rgb(100%, 49.382019%, 68.531799%)" offset="0.203125"/><stop stop-opacity="1" stop-color="rgb(100%, 49.749756%, 68.203735%)" offset="0.210938"/><stop stop-opacity="1" stop-color="rgb(100%, 50.117493%, 67.875671%)" offset="0.21875"/><stop stop-opacity="1" stop-color="rgb(100%, 50.485229%, 67.547607%)" offset="0.226563"/><stop stop-opacity="1" stop-color="rgb(100%, 50.852966%, 67.219543%)" offset="0.234375"/><stop stop-opacity="1" stop-color="rgb(100%, 51.222229%, 66.889954%)" offset="0.242188"/><stop stop-opacity="1" stop-color="rgb(100%, 51.589966%, 66.56189%)" offset="0.25"/><stop stop-opacity="1" stop-color="rgb(100%, 51.957703%, 66.233826%)" offset="0.257812"/><stop stop-opacity="1" stop-color="rgb(100%, 52.325439%, 65.905762%)" offset="0.265625"/><stop stop-opacity="1" stop-color="rgb(100%, 52.693176%, 65.577698%)" offset="0.273438"/><stop stop-opacity="1" stop-color="rgb(100%, 53.060913%, 65.249634%)" offset="0.28125"/><stop stop-opacity="1" stop-color="rgb(100%, 53.430176%, 64.92157%)" offset="0.289062"/><stop stop-opacity="1" stop-color="rgb(100%, 53.797913%, 64.593506%)" offset="0.296875"/><stop stop-opacity="1" stop-color="rgb(100%, 54.165649%, 64.265442%)" offset="0.304688"/><stop stop-opacity="1" stop-color="rgb(100%, 54.533386%, 63.937378%)" offset="0.3125"/><stop stop-opacity="1" stop-color="rgb(100%, 54.901123%, 63.609314%)" offset="0.320313"/><stop stop-opacity="1" stop-color="rgb(100%, 55.26886%, 63.28125%)" offset="0.328125"/><stop stop-opacity="1" stop-color="rgb(100%, 55.636597%, 62.953186%)" offset="0.335938"/><stop stop-opacity="1" stop-color="rgb(100%, 56.005859%, 62.625122%)" offset="0.34375"/><stop stop-opacity="1" stop-color="rgb(100%, 56.373596%, 62.297058%)" offset="0.351563"/><stop stop-opacity="1" stop-color="rgb(100%, 56.741333%, 61.968994%)" offset="0.359375"/><stop stop-opacity="1" stop-color="rgb(100%, 57.10907%, 61.64093%)" offset="0.367188"/><stop stop-opacity="1" stop-color="rgb(100%, 57.476807%, 61.312866%)" offset="0.375"/><stop stop-opacity="1" stop-color="rgb(100%, 57.844543%, 60.984802%)" offset="0.382813"/><stop stop-opacity="1" stop-color="rgb(100%, 58.21228%, 60.656738%)" offset="0.390625"/><stop stop-opacity="1" stop-color="rgb(100%, 58.581543%, 60.328674%)" offset="0.398438"/><stop stop-opacity="1" stop-color="rgb(100%, 58.94928%, 60.00061%)" offset="0.40625"/><stop stop-opacity="1" stop-color="rgb(100%, 59.317017%, 59.672546%)" offset="0.414063"/><stop stop-opacity="1" stop-color="rgb(100%, 59.684753%, 59.344482%)" offset="0.421875"/><stop stop-opacity="1" stop-color="rgb(100%, 60.05249%, 59.016418%)" offset="0.429688"/><stop stop-opacity="1" stop-color="rgb(100%, 60.420227%, 58.686829%)" offset="0.4375"/><stop stop-opacity="1" stop-color="rgb(100%, 60.78949%, 58.358765%)" offset="0.445312"/><stop stop-opacity="1" stop-color="rgb(100%, 61.157227%, 58.030701%)" offset="0.453125"/><stop stop-opacity="1" stop-color="rgb(100%, 61.524963%, 57.702637%)" offset="0.460938"/><stop stop-opacity="1" stop-color="rgb(100%, 61.8927%, 57.374573%)" offset="0.46875"/><stop stop-opacity="1" stop-color="rgb(100%, 62.260437%, 57.046509%)" offset="0.476562"/><stop stop-opacity="1" stop-color="rgb(100%, 62.628174%, 56.718445%)" offset="0.484375"/><stop stop-opacity="1" stop-color="rgb(100%, 62.995911%, 56.390381%)" offset="0.492188"/><stop stop-opacity="1" stop-color="rgb(100%, 63.365173%, 56.062317%)" offset="0.5"/><stop stop-opacity="1" stop-color="rgb(100%, 63.73291%, 55.734253%)" offset="0.507812"/><stop stop-opacity="1" stop-color="rgb(100%, 64.100647%, 55.406189%)" offset="0.515625"/><stop stop-opacity="1" stop-color="rgb(100%, 64.468384%, 55.078125%)" offset="0.523438"/><stop stop-opacity="1" stop-color="rgb(100%, 64.836121%, 54.750061%)" offset="0.53125"/><stop stop-opacity="1" stop-color="rgb(100%, 65.203857%, 54.421997%)" offset="0.539062"/><stop stop-opacity="1" stop-color="rgb(100%, 65.57312%, 54.093933%)" offset="0.546875"/><stop stop-opacity="1" stop-color="rgb(100%, 65.940857%, 53.765869%)" offset="0.554687"/><stop stop-opacity="1" stop-color="rgb(100%, 66.308594%, 53.437805%)" offset="0.5625"/><stop stop-opacity="1" stop-color="rgb(100%, 66.676331%, 53.109741%)" offset="0.570312"/><stop stop-opacity="1" stop-color="rgb(100%, 67.044067%, 52.781677%)" offset="0.578125"/><stop stop-opacity="1" stop-color="rgb(100%, 67.411804%, 52.453613%)" offset="0.585938"/><stop stop-opacity="1" stop-color="rgb(100%, 67.779541%, 52.125549%)" offset="0.59375"/><stop stop-opacity="1" stop-color="rgb(100%, 68.148804%, 51.797485%)" offset="0.601562"/><stop stop-opacity="1" stop-color="rgb(100%, 68.516541%, 51.469421%)" offset="0.609375"/><stop stop-opacity="1" stop-color="rgb(100%, 68.884277%, 51.141357%)" offset="0.617188"/><stop stop-opacity="1" stop-color="rgb(100%, 69.252014%, 50.813293%)" offset="0.625"/><stop stop-opacity="1" stop-color="rgb(100%, 69.619751%, 50.483704%)" offset="0.632812"/><stop stop-opacity="1" stop-color="rgb(100%, 69.987488%, 50.15564%)" offset="0.640625"/><stop stop-opacity="1" stop-color="rgb(100%, 70.35675%, 49.827576%)" offset="0.648438"/><stop stop-opacity="1" stop-color="rgb(100%, 70.724487%, 49.499512%)" offset="0.65625"/><stop stop-opacity="1" stop-color="rgb(100%, 71.092224%, 49.171448%)" offset="0.664062"/><stop stop-opacity="1" stop-color="rgb(100%, 71.459961%, 48.843384%)" offset="0.671875"/><stop stop-opacity="1" stop-color="rgb(100%, 71.827698%, 48.51532%)" offset="0.679687"/><stop stop-opacity="1" stop-color="rgb(100%, 72.195435%, 48.187256%)" offset="0.6875"/><stop stop-opacity="1" stop-color="rgb(100%, 72.563171%, 47.859192%)" offset="0.695312"/><stop stop-opacity="1" stop-color="rgb(100%, 72.932434%, 47.531128%)" offset="0.703125"/><stop stop-opacity="1" stop-color="rgb(100%, 73.300171%, 47.203064%)" offset="0.710937"/><stop stop-opacity="1" stop-color="rgb(100%, 73.667908%, 46.875%)" offset="0.71875"/><stop stop-opacity="1" stop-color="rgb(100%, 74.035645%, 46.546936%)" offset="0.726562"/><stop stop-opacity="1" stop-color="rgb(100%, 74.403381%, 46.218872%)" offset="0.734375"/><stop stop-opacity="1" stop-color="rgb(100%, 74.771118%, 45.890808%)" offset="0.742188"/><stop stop-opacity="1" stop-color="rgb(100%, 75.138855%, 45.562744%)" offset="0.75"/><stop stop-opacity="1" stop-color="rgb(100%, 75.508118%, 45.23468%)" offset="0.757812"/><stop stop-opacity="1" stop-color="rgb(100%, 75.875854%, 44.906616%)" offset="0.765625"/><stop stop-opacity="1" stop-color="rgb(100%, 76.243591%, 44.578552%)" offset="0.773438"/><stop stop-opacity="1" stop-color="rgb(100%, 76.611328%, 44.250488%)" offset="0.78125"/><stop stop-opacity="1" stop-color="rgb(100%, 76.979065%, 43.922424%)" offset="0.789062"/><stop stop-opacity="1" stop-color="rgb(100%, 77.346802%, 43.59436%)" offset="0.796875"/><stop stop-opacity="1" stop-color="rgb(100%, 77.716064%, 43.266296%)" offset="0.804687"/><stop stop-opacity="1" stop-color="rgb(100%, 78.083801%, 42.938232%)" offset="0.8125"/><stop stop-opacity="1" stop-color="rgb(100%, 78.451538%, 42.610168%)" offset="0.820312"/><stop stop-opacity="1" stop-color="rgb(100%, 78.819275%, 42.280579%)" offset="0.828125"/><stop stop-opacity="1" stop-color="rgb(100%, 79.187012%, 41.952515%)" offset="0.835937"/><stop stop-opacity="1" stop-color="rgb(100%, 79.554749%, 41.624451%)" offset="0.84375"/><stop stop-opacity="1" stop-color="rgb(100%, 79.922485%, 41.296387%)" offset="0.851562"/><stop stop-opacity="1" stop-color="rgb(100%, 80.291748%, 40.968323%)" offset="0.859375"/><stop stop-opacity="1" stop-color="rgb(100%, 80.659485%, 40.640259%)" offset="0.867188"/><stop stop-opacity="1" stop-color="rgb(100%, 81.027222%, 40.312195%)" offset="0.875"/><stop stop-opacity="1" stop-color="rgb(100%, 81.394958%, 39.984131%)" offset="0.882812"/><stop stop-opacity="1" stop-color="rgb(100%, 81.762695%, 39.656067%)" offset="0.890625"/><stop stop-opacity="1" stop-color="rgb(100%, 82.130432%, 39.328003%)" offset="0.898438"/><stop stop-opacity="1" stop-color="rgb(100%, 82.499695%, 38.999939%)" offset="0.90625"/><stop stop-opacity="1" stop-color="rgb(100%, 82.867432%, 38.671875%)" offset="0.914062"/><stop stop-opacity="1" stop-color="rgb(100%, 83.235168%, 38.343811%)" offset="0.921875"/><stop stop-opacity="1" stop-color="rgb(100%, 83.602905%, 38.015747%)" offset="0.929688"/><stop stop-opacity="1" stop-color="rgb(100%, 83.970642%, 37.687683%)" offset="0.9375"/><stop stop-opacity="1" stop-color="rgb(100%, 84.338379%, 37.359619%)" offset="0.945312"/><stop stop-opacity="1" stop-color="rgb(100%, 84.706116%, 37.031555%)" offset="0.953125"/><stop stop-opacity="1" stop-color="rgb(100%, 85.075378%, 36.703491%)" offset="0.960938"/><stop stop-opacity="1" stop-color="rgb(100%, 85.443115%, 36.375427%)" offset="0.96875"/><stop stop-opacity="1" stop-color="rgb(100%, 85.810852%, 36.047363%)" offset="0.976562"/><stop stop-opacity="1" stop-color="rgb(100%, 86.178589%, 35.719299%)" offset="0.984375"/><stop stop-opacity="1" stop-color="rgb(100%, 86.546326%, 35.391235%)" offset="0.992187"/><stop stop-opacity="1" stop-color="rgb(100%, 86.914062%, 35.063171%)" offset="1"/></linearGradient></defs><g clip-path="url(#c1b27388a6)"><g clip-path="url(#09de30add2)"><path fill="url(#2dd18e08f6)" d="M 1.292969 23.835938 L 1.292969 133.679688 L 111.136719 133.679688 L 111.136719 23.835938 Z M 1.292969 23.835938 " fill-rule="nonzero"/></g></g><g fill="#00fca8" fill-opacity="1"><g transform="translate(15.872399, 68.361618)"><g><path d="M 8.46875 0 C 7.71875 0 7.082031 -0.253906 6.5625 -0.765625 C 6.050781 -1.285156 5.796875 -1.925781 5.796875 -2.6875 L 5.796875 -38.921875 C 5.796875 -39.671875 6.050781 -40.3125 6.5625 -40.84375 C 7.082031 -41.382812 7.71875 -41.65625 8.46875 -41.65625 L 20.46875 -41.65625 C 25.007812 -41.65625 28.859375 -40.648438 32.015625 -38.640625 C 35.179688 -36.640625 37.5625 -34.046875 39.15625 -30.859375 C 40.75 -27.671875 41.546875 -24.328125 41.546875 -20.828125 C 41.546875 -17.328125 40.75 -13.984375 39.15625 -10.796875 C 37.5625 -7.617188 35.179688 -5.023438 32.015625 -3.015625 C 28.859375 -1.003906 25.007812 0 20.46875 0 Z M 19.8125 -5.078125 C 23.070312 -5.078125 25.9375 -5.742188 28.40625 -7.078125 C 30.875 -8.410156 32.785156 -10.257812 34.140625 -12.625 C 35.492188 -14.988281 36.171875 -17.722656 36.171875 -20.828125 C 36.171875 -23.929688 35.492188 -26.664062 34.140625 -29.03125 C 32.785156 -31.40625 30.875 -33.257812 28.40625 -34.59375 C 25.9375 -35.925781 23.070312 -36.59375 19.8125 -36.59375 L 11.21875 -36.59375 L 11.21875 -5.078125 Z M 19.8125 -5.078125 "/></g></g></g><g fill="#00fca8" fill-opacity="1"><g transform="translate(53.583863, 68.361618)"><g><path d="M 8.46875 0.296875 C 7.71875 0.296875 7.082031 0.0390625 6.5625 -0.46875 C 6.050781 -0.988281 5.796875 -1.628906 5.796875 -2.390625 L 5.796875 -38.921875 C 5.796875 -39.671875 6.050781 -40.3125 6.5625 -40.84375 C 7.082031 -41.382812 7.71875 -41.65625 8.46875 -41.65625 L 22.390625 -41.65625 C 27.796875 -41.65625 31.851562 -40.539062 34.5625 -38.3125 C 37.269531 -36.09375 38.625 -33.171875 38.625 -29.546875 C 38.625 -27.160156 37.957031 -24.984375 36.625 -23.015625 C 35.289062 -21.046875 33.347656 -19.617188 30.796875 -18.734375 C 33.660156 -17.984375 35.617188 -16.203125 36.671875 -13.390625 C 37.734375 -10.585938 38.265625 -7.835938 38.265625 -5.140625 L 38.265625 -2.390625 C 38.265625 -1.628906 38.003906 -0.988281 37.484375 -0.46875 C 36.960938 0.0390625 36.328125 0.296875 35.578125 0.296875 C 34.742188 0.296875 34.078125 0.0507812 33.578125 -0.4375 C 33.078125 -0.9375 32.828125 -1.585938 32.828125 -2.390625 L 32.828125 -4.171875 C 32.828125 -6.160156 32.644531 -8 32.28125 -9.6875 C 31.925781 -11.382812 31.070312 -12.898438 29.71875 -14.234375 C 28.363281 -15.566406 26.316406 -16.234375 23.578125 -16.234375 L 11.21875 -16.234375 L 11.21875 -2.390625 C 11.21875 -1.628906 10.945312 -0.988281 10.40625 -0.46875 C 9.875 0.0390625 9.226562 0.296875 8.46875 0.296875 Z M 22.03125 -21.375 C 25.445312 -21.375 28.160156 -22.046875 30.171875 -23.390625 C 32.179688 -24.742188 33.1875 -26.65625 33.1875 -29.125 C 33.1875 -31.507812 32.320312 -33.335938 30.59375 -34.609375 C 28.863281 -35.890625 25.90625 -36.53125 21.71875 -36.53125 L 11.21875 -36.53125 L 11.21875 -21.375 Z M 22.03125 -21.375 "/></g></g></g><g fill="#00fca8" fill-opacity="1"><g transform="translate(15.872399, 98.450807)"><g><path d="M 5.671875 0.296875 C 4.878906 0.296875 4.234375 0.0390625 3.734375 -0.46875 C 3.234375 -0.988281 2.984375 -1.628906 2.984375 -2.390625 C 2.984375 -2.703125 3.082031 -3.097656 3.28125 -3.578125 L 18.5 -39.515625 C 18.820312 -40.234375 19.269531 -40.816406 19.84375 -41.265625 C 20.425781 -41.722656 21.132812 -41.953125 21.96875 -41.953125 L 22.5625 -41.953125 C 23.394531 -41.953125 24.097656 -41.722656 24.671875 -41.265625 C 25.253906 -40.816406 25.707031 -40.234375 26.03125 -39.515625 L 41.25 -3.578125 C 41.445312 -3.097656 41.546875 -2.703125 41.546875 -2.390625 C 41.546875 -1.628906 41.296875 -0.988281 40.796875 -0.46875 C 40.296875 0.0390625 39.648438 0.296875 38.859375 0.296875 C 38.296875 0.296875 37.785156 0.148438 37.328125 -0.140625 C 36.867188 -0.441406 36.523438 -0.851562 36.296875 -1.375 L 32.40625 -10.6875 L 12.109375 -10.6875 L 8.234375 -1.375 C 7.992188 -0.851562 7.644531 -0.441406 7.1875 -0.140625 C 6.726562 0.148438 6.222656 0.296875 5.671875 0.296875 Z M 14.203125 -15.640625 L 30.328125 -15.640625 L 22.265625 -35.03125 Z M 14.203125 -15.640625 "/></g></g></g><g fill="#00fca8" fill-opacity="1"><g transform="translate(53.285499, 98.450807)"><g><path d="M 24.171875 0.59375 C 20.191406 0.59375 16.617188 -0.269531 13.453125 -2 C 10.296875 -3.726562 7.8125 -6.210938 6 -9.453125 C 4.1875 -12.703125 3.28125 -16.492188 3.28125 -20.828125 C 3.28125 -25.171875 4.1875 -28.960938 6 -32.203125 C 7.8125 -35.441406 10.296875 -37.925781 13.453125 -39.65625 C 16.617188 -41.394531 20.191406 -42.265625 24.171875 -42.265625 C 26.878906 -42.265625 29.296875 -41.941406 31.421875 -41.296875 C 33.554688 -40.660156 35.675781 -39.75 37.78125 -38.5625 C 38.65625 -38.082031 39.09375 -37.328125 39.09375 -36.296875 C 39.09375 -35.691406 38.875 -35.160156 38.4375 -34.703125 C 38 -34.242188 37.421875 -34.015625 36.703125 -34.015625 C 36.304688 -34.015625 35.953125 -34.097656 35.640625 -34.265625 C 33.878906 -35.179688 32.164062 -35.875 30.5 -36.34375 C 28.832031 -36.820312 26.898438 -37.0625 24.703125 -37.0625 C 21.285156 -37.0625 18.375 -36.351562 15.96875 -34.9375 C 13.5625 -33.53125 11.75 -31.601562 10.53125 -29.15625 C 9.320312 -26.707031 8.71875 -23.929688 8.71875 -20.828125 C 8.71875 -17.722656 9.320312 -14.945312 10.53125 -12.5 C 11.75 -10.050781 13.5625 -8.117188 15.96875 -6.703125 C 18.375 -5.296875 21.285156 -4.59375 24.703125 -4.59375 C 26.898438 -4.59375 28.832031 -4.832031 30.5 -5.3125 C 32.164062 -5.789062 33.878906 -6.488281 35.640625 -7.40625 C 35.953125 -7.5625 36.304688 -7.640625 36.703125 -7.640625 C 37.421875 -7.640625 38 -7.421875 38.4375 -6.984375 C 38.875 -6.546875 39.09375 -6.007812 39.09375 -5.375 C 39.09375 -4.332031 38.65625 -3.578125 37.78125 -3.109375 C 35.675781 -1.910156 33.554688 -0.992188 31.421875 -0.359375 C 29.296875 0.273438 26.878906 0.59375 24.171875 0.59375 Z M 24.171875 0.59375 "/></g></g></g><g fill="#00fca8" fill-opacity="1"><g transform="translate(15.872399, 128.539997)"><g><path d="M 8.46875 0.296875 C 7.71875 0.296875 7.082031 0.0390625 6.5625 -0.46875 C 6.050781 -0.988281 5.796875 -1.628906 5.796875 -2.390625 L 5.796875 -38.015625 C 5.796875 -39.085938 6.171875 -40.007812 6.921875 -40.78125 C 7.679688 -41.5625 8.597656 -41.953125 9.671875 -41.953125 L 11.640625 -41.953125 C 12.429688 -41.953125 13.15625 -41.710938 13.8125 -41.234375 C 14.46875 -40.765625 14.957031 -40.171875 15.28125 -39.453125 L 28.828125 -5.671875 L 42.375 -39.453125 C 42.695312 -40.171875 43.1875 -40.765625 43.84375 -41.234375 C 44.5 -41.710938 45.222656 -41.953125 46.015625 -41.953125 L 47.984375 -41.953125 C 49.054688 -41.953125 49.972656 -41.5625 50.734375 -40.78125 C 51.492188 -40.007812 51.875 -39.085938 51.875 -38.015625 L 51.875 -2.390625 C 51.875 -1.628906 51.613281 -0.988281 51.09375 -0.46875 C 50.570312 0.0390625 49.9375 0.296875 49.1875 0.296875 C 48.425781 0.296875 47.773438 0.0390625 47.234375 -0.46875 C 46.703125 -0.988281 46.4375 -1.628906 46.4375 -2.390625 L 46.4375 -36.296875 L 32.65625 -2.203125 C 32.332031 -1.453125 31.820312 -0.847656 31.125 -0.390625 C 30.425781 0.0664062 29.660156 0.296875 28.828125 0.296875 C 27.992188 0.296875 27.226562 0.0664062 26.53125 -0.390625 C 25.832031 -0.847656 25.328125 -1.453125 25.015625 -2.203125 L 11.21875 -36.296875 L 11.21875 -2.390625 C 11.21875 -1.628906 10.945312 -0.988281 10.40625 -0.46875 C 9.875 0.0390625 9.226562 0.296875 8.46875 0.296875 Z M 8.46875 0.296875 "/></g></g></g><g fill="#00fca8" fill-opacity="1"><g transform="translate(66.413872, 128.539997)"><g><path d="M 5.671875 0.296875 C 4.878906 0.296875 4.234375 0.0390625 3.734375 -0.46875 C 3.234375 -0.988281 2.984375 -1.628906 2.984375 -2.390625 C 2.984375 -2.703125 3.082031 -3.097656 3.28125 -3.578125 L 18.5 -39.515625 C 18.820312 -40.234375 19.269531 -40.816406 19.84375 -41.265625 C 20.425781 -41.722656 21.132812 -41.953125 21.96875 -41.953125 L 22.5625 -41.953125 C 23.394531 -41.953125 24.097656 -41.722656 24.671875 -41.265625 C 25.253906 -40.816406 25.707031 -40.234375 26.03125 -39.515625 L 41.25 -3.578125 C 41.445312 -3.097656 41.546875 -2.703125 41.546875 -2.390625 C 41.546875 -1.628906 41.296875 -0.988281 40.796875 -0.46875 C 40.296875 0.0390625 39.648438 0.296875 38.859375 0.296875 C 38.296875 0.296875 37.785156 0.148438 37.328125 -0.140625 C 36.867188 -0.441406 36.523438 -0.851562 36.296875 -1.375 L 32.40625 -10.6875 L 12.109375 -10.6875 L 8.234375 -1.375 C 7.992188 -0.851562 7.644531 -0.441406 7.1875 -0.140625 C 6.726562 0.148438 6.222656 0.296875 5.671875 0.296875 Z M 14.203125 -15.640625 L 30.328125 -15.640625 L 22.265625 -35.03125 Z M 14.203125 -15.640625 "/></g></g></g></svg>