<svg xmlns="http://www.w3.org/2000/svg" xmlns:xlink="http://www.w3.org/1999/xlink" width="544" zoomAndPan="magnify" viewBox="0 0 408 131.249995" height="175" preserveAspectRatio="xMidYMid meet" version="1.0"><defs><g/><clipPath id="b3c77d728d"><path d="M 375.390625 72.40625 L 391.945312 72.40625 L 391.945312 88.964844 L 375.390625 88.964844 Z M 375.390625 72.40625 " clip-rule="nonzero"/></clipPath><clipPath id="7eae775e19"><path d="M 383.667969 72.40625 C 379.097656 72.40625 375.390625 76.113281 375.390625 80.683594 C 375.390625 85.257812 379.097656 88.964844 383.667969 88.964844 C 388.238281 88.964844 391.945312 85.257812 391.945312 80.683594 C 391.945312 76.113281 388.238281 72.40625 383.667969 72.40625 Z M 383.667969 72.40625 " clip-rule="nonzero"/></clipPath><linearGradient x1="0.0000171882" gradientTransform="matrix(0.064672, 0, 0, 0.064672, 375.389882, 72.407338)" y1="0" x2="256.00002" gradientUnits="userSpaceOnUse" y2="0" id="6cf488d4d4"><stop stop-opacity="1" stop-color="rgb(100%, 39.99939%, 76.899719%)" offset="0"/><stop stop-opacity="1" stop-color="rgb(100%, 40.182495%, 76.734924%)" offset="0.0078125"/><stop stop-opacity="1" stop-color="rgb(100%, 40.550232%, 76.40686%)" offset="0.015625"/><stop stop-opacity="1" stop-color="rgb(100%, 40.917969%, 76.078796%)" offset="0.0234375"/><stop stop-opacity="1" stop-color="rgb(100%, 41.287231%, 75.750732%)" offset="0.03125"/><stop stop-opacity="1" stop-color="rgb(100%, 41.654968%, 75.422668%)" offset="0.0390625"/><stop stop-opacity="1" stop-color="rgb(100%, 42.022705%, 75.093079%)" offset="0.046875"/><stop stop-opacity="1" stop-color="rgb(100%, 42.390442%, 74.765015%)" offset="0.0546875"/><stop stop-opacity="1" stop-color="rgb(100%, 42.758179%, 74.436951%)" offset="0.0625"/><stop stop-opacity="1" stop-color="rgb(100%, 43.125916%, 74.108887%)" offset="0.0703125"/><stop stop-opacity="1" stop-color="rgb(100%, 43.493652%, 73.780823%)" offset="0.078125"/><stop stop-opacity="1" stop-color="rgb(100%, 43.862915%, 73.452759%)" offset="0.0859375"/><stop stop-opacity="1" stop-color="rgb(100%, 44.230652%, 73.124695%)" offset="0.09375"/><stop stop-opacity="1" stop-color="rgb(100%, 44.598389%, 72.796631%)" offset="0.101562"/><stop stop-opacity="1" stop-color="rgb(100%, 44.966125%, 72.468567%)" offset="0.109375"/><stop stop-opacity="1" stop-color="rgb(100%, 45.333862%, 72.140503%)" offset="0.117188"/><stop stop-opacity="1" stop-color="rgb(100%, 45.701599%, 71.812439%)" offset="0.125"/><stop stop-opacity="1" stop-color="rgb(100%, 46.069336%, 71.484375%)" offset="0.132812"/><stop stop-opacity="1" stop-color="rgb(100%, 46.438599%, 71.156311%)" offset="0.140625"/><stop stop-opacity="1" stop-color="rgb(100%, 46.806335%, 70.828247%)" offset="0.148438"/><stop stop-opacity="1" stop-color="rgb(100%, 47.174072%, 70.500183%)" offset="0.15625"/><stop stop-opacity="1" stop-color="rgb(100%, 47.541809%, 70.172119%)" offset="0.164062"/><stop stop-opacity="1" stop-color="rgb(100%, 47.909546%, 69.844055%)" offset="0.171875"/><stop stop-opacity="1" stop-color="rgb(100%, 48.277283%, 69.515991%)" offset="0.179688"/><stop stop-opacity="1" stop-color="rgb(100%, 48.646545%, 69.187927%)" offset="0.1875"/><stop stop-opacity="1" stop-color="rgb(100%, 49.014282%, 68.859863%)" offset="0.195312"/><stop stop-opacity="1" stop-color="rgb(100%, 49.382019%, 68.531799%)" offset="0.203125"/><stop stop-opacity="1" stop-color="rgb(100%, 49.749756%, 68.203735%)" offset="0.210938"/><stop stop-opacity="1" stop-color="rgb(100%, 50.117493%, 67.875671%)" offset="0.21875"/><stop stop-opacity="1" stop-color="rgb(100%, 50.485229%, 67.547607%)" offset="0.226562"/><stop stop-opacity="1" stop-color="rgb(100%, 50.852966%, 67.219543%)" offset="0.234375"/><stop stop-opacity="1" stop-color="rgb(100%, 51.222229%, 66.889954%)" offset="0.242188"/><stop stop-opacity="1" stop-color="rgb(100%, 51.589966%, 66.56189%)" offset="0.25"/><stop stop-opacity="1" stop-color="rgb(100%, 51.957703%, 66.233826%)" offset="0.257812"/><stop stop-opacity="1" stop-color="rgb(100%, 52.325439%, 65.905762%)" offset="0.265625"/><stop stop-opacity="1" stop-color="rgb(100%, 52.693176%, 65.577698%)" offset="0.273438"/><stop stop-opacity="1" stop-color="rgb(100%, 53.060913%, 65.249634%)" offset="0.28125"/><stop stop-opacity="1" stop-color="rgb(100%, 53.430176%, 64.92157%)" offset="0.289062"/><stop stop-opacity="1" stop-color="rgb(100%, 53.797913%, 64.593506%)" offset="0.296875"/><stop stop-opacity="1" stop-color="rgb(100%, 54.165649%, 64.265442%)" offset="0.304688"/><stop stop-opacity="1" stop-color="rgb(100%, 54.533386%, 63.937378%)" offset="0.3125"/><stop stop-opacity="1" stop-color="rgb(100%, 54.901123%, 63.609314%)" offset="0.320312"/><stop stop-opacity="1" stop-color="rgb(100%, 55.26886%, 63.28125%)" offset="0.328125"/><stop stop-opacity="1" stop-color="rgb(100%, 55.636597%, 62.953186%)" offset="0.335938"/><stop stop-opacity="1" stop-color="rgb(100%, 56.005859%, 62.625122%)" offset="0.34375"/><stop stop-opacity="1" stop-color="rgb(100%, 56.373596%, 62.297058%)" offset="0.351562"/><stop stop-opacity="1" stop-color="rgb(100%, 56.741333%, 61.968994%)" offset="0.359375"/><stop stop-opacity="1" stop-color="rgb(100%, 57.10907%, 61.64093%)" offset="0.367188"/><stop stop-opacity="1" stop-color="rgb(100%, 57.476807%, 61.312866%)" offset="0.375"/><stop stop-opacity="1" stop-color="rgb(100%, 57.844543%, 60.984802%)" offset="0.382812"/><stop stop-opacity="1" stop-color="rgb(100%, 58.213806%, 60.656738%)" offset="0.390625"/><stop stop-opacity="1" stop-color="rgb(100%, 58.581543%, 60.328674%)" offset="0.398438"/><stop stop-opacity="1" stop-color="rgb(100%, 58.94928%, 60.00061%)" offset="0.40625"/><stop stop-opacity="1" stop-color="rgb(100%, 59.317017%, 59.672546%)" offset="0.414062"/><stop stop-opacity="1" stop-color="rgb(100%, 59.684753%, 59.344482%)" offset="0.421875"/><stop stop-opacity="1" stop-color="rgb(100%, 60.05249%, 59.016418%)" offset="0.429688"/><stop stop-opacity="1" stop-color="rgb(100%, 60.420227%, 58.686829%)" offset="0.4375"/><stop stop-opacity="1" stop-color="rgb(100%, 60.78949%, 58.358765%)" offset="0.445312"/><stop stop-opacity="1" stop-color="rgb(100%, 61.157227%, 58.030701%)" offset="0.453125"/><stop stop-opacity="1" stop-color="rgb(100%, 61.524963%, 57.702637%)" offset="0.460938"/><stop stop-opacity="1" stop-color="rgb(100%, 61.8927%, 57.374573%)" offset="0.46875"/><stop stop-opacity="1" stop-color="rgb(100%, 62.260437%, 57.046509%)" offset="0.476562"/><stop stop-opacity="1" stop-color="rgb(100%, 62.628174%, 56.718445%)" offset="0.484375"/><stop stop-opacity="1" stop-color="rgb(100%, 62.995911%, 56.390381%)" offset="0.492188"/><stop stop-opacity="1" stop-color="rgb(100%, 63.365173%, 56.062317%)" offset="0.5"/><stop stop-opacity="1" stop-color="rgb(100%, 63.73291%, 55.734253%)" offset="0.507812"/><stop stop-opacity="1" stop-color="rgb(100%, 64.100647%, 55.406189%)" offset="0.515625"/><stop stop-opacity="1" stop-color="rgb(100%, 64.468384%, 55.078125%)" offset="0.523438"/><stop stop-opacity="1" stop-color="rgb(100%, 64.836121%, 54.750061%)" offset="0.53125"/><stop stop-opacity="1" stop-color="rgb(100%, 65.203857%, 54.421997%)" offset="0.539062"/><stop stop-opacity="1" stop-color="rgb(100%, 65.57312%, 54.093933%)" offset="0.546875"/><stop stop-opacity="1" stop-color="rgb(100%, 65.940857%, 53.765869%)" offset="0.554688"/><stop stop-opacity="1" stop-color="rgb(100%, 66.308594%, 53.437805%)" offset="0.5625"/><stop stop-opacity="1" stop-color="rgb(100%, 66.676331%, 53.109741%)" offset="0.570312"/><stop stop-opacity="1" stop-color="rgb(100%, 67.044067%, 52.781677%)" offset="0.578125"/><stop stop-opacity="1" stop-color="rgb(100%, 67.411804%, 52.453613%)" offset="0.585938"/><stop stop-opacity="1" stop-color="rgb(100%, 67.779541%, 52.125549%)" offset="0.59375"/><stop stop-opacity="1" stop-color="rgb(100%, 68.148804%, 51.797485%)" offset="0.601562"/><stop stop-opacity="1" stop-color="rgb(100%, 68.516541%, 51.469421%)" offset="0.609375"/><stop stop-opacity="1" stop-color="rgb(100%, 68.884277%, 51.141357%)" offset="0.617188"/><stop stop-opacity="1" stop-color="rgb(100%, 69.252014%, 50.813293%)" offset="0.625"/><stop stop-opacity="1" stop-color="rgb(100%, 69.619751%, 50.483704%)" offset="0.632812"/><stop stop-opacity="1" stop-color="rgb(100%, 69.987488%, 50.15564%)" offset="0.640625"/><stop stop-opacity="1" stop-color="rgb(100%, 70.35675%, 49.827576%)" offset="0.648438"/><stop stop-opacity="1" stop-color="rgb(100%, 70.724487%, 49.499512%)" offset="0.65625"/><stop stop-opacity="1" stop-color="rgb(100%, 71.092224%, 49.171448%)" offset="0.664062"/><stop stop-opacity="1" stop-color="rgb(100%, 71.459961%, 48.843384%)" offset="0.671875"/><stop stop-opacity="1" stop-color="rgb(100%, 71.827698%, 48.51532%)" offset="0.679688"/><stop stop-opacity="1" stop-color="rgb(100%, 72.195435%, 48.187256%)" offset="0.6875"/><stop stop-opacity="1" stop-color="rgb(100%, 72.563171%, 47.859192%)" offset="0.695312"/><stop stop-opacity="1" stop-color="rgb(100%, 72.932434%, 47.531128%)" offset="0.703125"/><stop stop-opacity="1" stop-color="rgb(100%, 73.300171%, 47.203064%)" offset="0.710938"/><stop stop-opacity="1" stop-color="rgb(100%, 73.667908%, 46.875%)" offset="0.71875"/><stop stop-opacity="1" stop-color="rgb(100%, 74.035645%, 46.546936%)" offset="0.726562"/><stop stop-opacity="1" stop-color="rgb(100%, 74.403381%, 46.218872%)" offset="0.734375"/><stop stop-opacity="1" stop-color="rgb(100%, 74.771118%, 45.890808%)" offset="0.742188"/><stop stop-opacity="1" stop-color="rgb(100%, 75.138855%, 45.562744%)" offset="0.75"/><stop stop-opacity="1" stop-color="rgb(100%, 75.508118%, 45.23468%)" offset="0.757812"/><stop stop-opacity="1" stop-color="rgb(100%, 75.875854%, 44.906616%)" offset="0.765625"/><stop stop-opacity="1" stop-color="rgb(100%, 76.243591%, 44.578552%)" offset="0.773438"/><stop stop-opacity="1" stop-color="rgb(100%, 76.611328%, 44.250488%)" offset="0.78125"/><stop stop-opacity="1" stop-color="rgb(100%, 76.979065%, 43.922424%)" offset="0.789062"/><stop stop-opacity="1" stop-color="rgb(100%, 77.346802%, 43.59436%)" offset="0.796875"/><stop stop-opacity="1" stop-color="rgb(100%, 77.716064%, 43.266296%)" offset="0.804688"/><stop stop-opacity="1" stop-color="rgb(100%, 78.083801%, 42.938232%)" offset="0.8125"/><stop stop-opacity="1" stop-color="rgb(100%, 78.451538%, 42.610168%)" offset="0.820312"/><stop stop-opacity="1" stop-color="rgb(100%, 78.819275%, 42.280579%)" offset="0.828125"/><stop stop-opacity="1" stop-color="rgb(100%, 79.187012%, 41.952515%)" offset="0.835938"/><stop stop-opacity="1" stop-color="rgb(100%, 79.554749%, 41.624451%)" offset="0.84375"/><stop stop-opacity="1" stop-color="rgb(100%, 79.922485%, 41.296387%)" offset="0.851562"/><stop stop-opacity="1" stop-color="rgb(100%, 80.291748%, 40.968323%)" offset="0.859375"/><stop stop-opacity="1" stop-color="rgb(100%, 80.659485%, 40.640259%)" offset="0.867188"/><stop stop-opacity="1" stop-color="rgb(100%, 81.027222%, 40.312195%)" offset="0.875"/><stop stop-opacity="1" stop-color="rgb(100%, 81.394958%, 39.984131%)" offset="0.882812"/><stop stop-opacity="1" stop-color="rgb(100%, 81.762695%, 39.656067%)" offset="0.890625"/><stop stop-opacity="1" stop-color="rgb(100%, 82.130432%, 39.328003%)" offset="0.898438"/><stop stop-opacity="1" stop-color="rgb(100%, 82.499695%, 38.999939%)" offset="0.90625"/><stop stop-opacity="1" stop-color="rgb(100%, 82.867432%, 38.671875%)" offset="0.914062"/><stop stop-opacity="1" stop-color="rgb(100%, 83.235168%, 38.343811%)" offset="0.921875"/><stop stop-opacity="1" stop-color="rgb(100%, 83.602905%, 38.015747%)" offset="0.929688"/><stop stop-opacity="1" stop-color="rgb(100%, 83.970642%, 37.687683%)" offset="0.9375"/><stop stop-opacity="1" stop-color="rgb(100%, 84.338379%, 37.359619%)" offset="0.945312"/><stop stop-opacity="1" stop-color="rgb(100%, 84.706116%, 37.031555%)" offset="0.953125"/><stop stop-opacity="1" stop-color="rgb(100%, 85.075378%, 36.703491%)" offset="0.960938"/><stop stop-opacity="1" stop-color="rgb(100%, 85.443115%, 36.375427%)" offset="0.96875"/><stop stop-opacity="1" stop-color="rgb(100%, 85.810852%, 36.047363%)" offset="0.976562"/><stop stop-opacity="1" stop-color="rgb(100%, 86.178589%, 35.719299%)" offset="0.984375"/><stop stop-opacity="1" stop-color="rgb(100%, 86.546326%, 35.391235%)" offset="0.992188"/><stop stop-opacity="1" stop-color="rgb(100%, 86.914062%, 35.063171%)" offset="1"/></linearGradient></defs><g fill="#00fca8" fill-opacity="1"><g transform="translate(21.294041, 88.163858)"><g><path d="M 10.875 0 C 9.894531 0 9.070312 -0.328125 8.40625 -0.984375 C 7.75 -1.648438 7.421875 -2.46875 7.421875 -3.4375 L 7.421875 -49.890625 C 7.421875 -50.867188 7.75 -51.703125 8.40625 -52.390625 C 9.070312 -53.078125 9.894531 -53.421875 10.875 -53.421875 L 26.25 -53.421875 C 32.0625 -53.421875 36.992188 -52.128906 41.046875 -49.546875 C 45.109375 -46.972656 48.160156 -43.644531 50.203125 -39.5625 C 52.242188 -35.476562 53.265625 -31.191406 53.265625 -26.703125 C 53.265625 -22.210938 52.242188 -17.925781 50.203125 -13.84375 C 48.160156 -9.769531 45.109375 -6.441406 41.046875 -3.859375 C 36.992188 -1.285156 32.0625 0 26.25 0 Z M 25.40625 -6.5 C 29.59375 -6.5 33.265625 -7.351562 36.421875 -9.0625 C 39.585938 -10.769531 42.035156 -13.140625 43.765625 -16.171875 C 45.503906 -19.210938 46.375 -22.722656 46.375 -26.703125 C 46.375 -30.679688 45.503906 -34.1875 43.765625 -37.21875 C 42.035156 -40.257812 39.585938 -42.632812 36.421875 -44.34375 C 33.265625 -46.050781 29.59375 -46.90625 25.40625 -46.90625 L 14.390625 -46.90625 L 14.390625 -6.5 Z M 25.40625 -6.5 "/></g></g></g><g fill="#00fca8" fill-opacity="1"><g transform="translate(78.752727, 88.163858)"><g><path d="M 10.875 0.375 C 9.894531 0.375 9.070312 0.046875 8.40625 -0.609375 C 7.75 -1.273438 7.421875 -2.09375 7.421875 -3.0625 L 7.421875 -49.890625 C 7.421875 -50.867188 7.75 -51.703125 8.40625 -52.390625 C 9.070312 -53.078125 9.894531 -53.421875 10.875 -53.421875 L 28.703125 -53.421875 C 35.640625 -53.421875 40.84375 -51.988281 44.3125 -49.125 C 47.78125 -46.269531 49.515625 -42.523438 49.515625 -37.890625 C 49.515625 -34.828125 48.660156 -32.03125 46.953125 -29.5 C 45.242188 -26.976562 42.753906 -25.15625 39.484375 -24.03125 C 43.160156 -23.0625 45.675781 -20.773438 47.03125 -17.171875 C 48.382812 -13.578125 49.0625 -10.046875 49.0625 -6.578125 L 49.0625 -3.0625 C 49.0625 -2.09375 48.726562 -1.273438 48.0625 -0.609375 C 47.394531 0.046875 46.578125 0.375 45.609375 0.375 C 44.535156 0.375 43.679688 0.0546875 43.046875 -0.578125 C 42.410156 -1.210938 42.09375 -2.039062 42.09375 -3.0625 L 42.09375 -5.359375 C 42.09375 -7.910156 41.863281 -10.269531 41.40625 -12.4375 C 40.945312 -14.601562 39.847656 -16.539062 38.109375 -18.25 C 36.378906 -19.957031 33.753906 -20.8125 30.234375 -20.8125 L 14.390625 -20.8125 L 14.390625 -3.0625 C 14.390625 -2.09375 14.046875 -1.273438 13.359375 -0.609375 C 12.671875 0.046875 11.84375 0.375 10.875 0.375 Z M 28.234375 -27.390625 C 32.628906 -27.390625 36.113281 -28.257812 38.6875 -30 C 41.257812 -31.738281 42.546875 -34.1875 42.546875 -37.34375 C 42.546875 -40.40625 41.4375 -42.753906 39.21875 -44.390625 C 37 -46.023438 33.210938 -46.84375 27.859375 -46.84375 L 14.390625 -46.84375 L 14.390625 -27.390625 Z M 28.234375 -27.390625 "/></g></g></g><g fill="#00fca8" fill-opacity="1"><g transform="translate(133.227534, 88.163858)"><g><path d="M 7.265625 0.375 C 6.242188 0.375 5.414062 0.046875 4.78125 -0.609375 C 4.144531 -1.273438 3.828125 -2.09375 3.828125 -3.0625 C 3.828125 -3.46875 3.953125 -3.976562 4.203125 -4.59375 L 23.71875 -50.65625 C 24.132812 -51.582031 24.710938 -52.335938 25.453125 -52.921875 C 26.191406 -53.503906 27.09375 -53.796875 28.15625 -53.796875 L 28.921875 -53.796875 C 29.992188 -53.796875 30.898438 -53.503906 31.640625 -52.921875 C 32.378906 -52.335938 32.957031 -51.582031 33.375 -50.65625 L 52.890625 -4.59375 C 53.140625 -3.976562 53.265625 -3.46875 53.265625 -3.0625 C 53.265625 -2.09375 52.945312 -1.273438 52.3125 -0.609375 C 51.675781 0.046875 50.847656 0.375 49.828125 0.375 C 49.109375 0.375 48.453125 0.1875 47.859375 -0.1875 C 47.273438 -0.570312 46.832031 -1.097656 46.53125 -1.765625 L 41.5625 -13.703125 L 15.53125 -13.703125 L 10.5625 -1.765625 C 10.257812 -1.097656 9.8125 -0.570312 9.21875 -0.1875 C 8.632812 0.1875 7.984375 0.375 7.265625 0.375 Z M 18.21875 -20.046875 L 38.875 -20.046875 L 28.546875 -44.921875 Z M 18.21875 -20.046875 "/></g></g></g><g fill="#00fca8" fill-opacity="1"><g transform="translate(190.30367, 88.163858)"><g><path d="M 31 0.765625 C 25.894531 0.765625 21.3125 -0.34375 17.25 -2.5625 C 13.195312 -4.78125 10.007812 -7.96875 7.6875 -12.125 C 5.363281 -16.289062 4.203125 -21.148438 4.203125 -26.703125 C 4.203125 -32.265625 5.363281 -37.125 7.6875 -41.28125 C 10.007812 -45.445312 13.195312 -48.640625 17.25 -50.859375 C 21.3125 -53.078125 25.894531 -54.1875 31 -54.1875 C 34.46875 -54.1875 37.566406 -53.773438 40.296875 -52.953125 C 43.023438 -52.140625 45.738281 -50.96875 48.4375 -49.4375 C 49.5625 -48.820312 50.125 -47.851562 50.125 -46.53125 C 50.125 -45.769531 49.84375 -45.09375 49.28125 -44.5 C 48.71875 -43.914062 47.976562 -43.625 47.0625 -43.625 C 46.550781 -43.625 46.09375 -43.722656 45.6875 -43.921875 C 43.445312 -45.097656 41.253906 -45.992188 39.109375 -46.609375 C 36.960938 -47.222656 34.488281 -47.53125 31.6875 -47.53125 C 27.300781 -47.53125 23.5625 -46.625 20.46875 -44.8125 C 17.382812 -43 15.0625 -40.519531 13.5 -37.375 C 11.945312 -34.238281 11.171875 -30.679688 11.171875 -26.703125 C 11.171875 -22.722656 11.945312 -19.164062 13.5 -16.03125 C 15.0625 -12.894531 17.382812 -10.421875 20.46875 -8.609375 C 23.5625 -6.796875 27.300781 -5.890625 31.6875 -5.890625 C 34.488281 -5.890625 36.960938 -6.195312 39.109375 -6.8125 C 41.253906 -7.425781 43.445312 -8.316406 45.6875 -9.484375 C 46.09375 -9.691406 46.550781 -9.796875 47.0625 -9.796875 C 47.976562 -9.796875 48.71875 -9.515625 49.28125 -8.953125 C 49.84375 -8.390625 50.125 -7.703125 50.125 -6.890625 C 50.125 -5.554688 49.5625 -4.585938 48.4375 -3.984375 C 45.738281 -2.453125 43.023438 -1.273438 40.296875 -0.453125 C 37.566406 0.359375 34.46875 0.765625 31 0.765625 Z M 31 0.765625 "/></g></g></g><g fill="#00fca8" fill-opacity="1"><g transform="translate(243.477813, 88.163858)"><g><path d="M 10.875 0.375 C 9.894531 0.375 9.070312 0.046875 8.40625 -0.609375 C 7.75 -1.273438 7.421875 -2.09375 7.421875 -3.0625 L 7.421875 -48.75 C 7.421875 -50.125 7.90625 -51.304688 8.875 -52.296875 C 9.84375 -53.296875 11.015625 -53.796875 12.390625 -53.796875 L 14.921875 -53.796875 C 15.941406 -53.796875 16.875 -53.488281 17.71875 -52.875 C 18.5625 -52.269531 19.1875 -51.507812 19.59375 -50.59375 L 36.96875 -7.265625 L 54.34375 -50.59375 C 54.75 -51.507812 55.367188 -52.269531 56.203125 -52.875 C 57.046875 -53.488281 57.976562 -53.796875 59 -53.796875 L 61.53125 -53.796875 C 62.90625 -53.796875 64.078125 -53.296875 65.046875 -52.296875 C 66.015625 -51.304688 66.5 -50.125 66.5 -48.75 L 66.5 -3.0625 C 66.5 -2.09375 66.164062 -1.273438 65.5 -0.609375 C 64.84375 0.046875 64.03125 0.375 63.0625 0.375 C 62.09375 0.375 61.265625 0.046875 60.578125 -0.609375 C 59.890625 -1.273438 59.546875 -2.09375 59.546875 -3.0625 L 59.546875 -46.53125 L 41.859375 -2.828125 C 41.453125 -1.859375 40.800781 -1.082031 39.90625 -0.5 C 39.019531 0.0820312 38.039062 0.375 36.96875 0.375 C 35.894531 0.375 34.910156 0.0820312 34.015625 -0.5 C 33.117188 -1.082031 32.46875 -1.859375 32.0625 -2.828125 L 14.390625 -46.53125 L 14.390625 -3.0625 C 14.390625 -2.09375 14.046875 -1.273438 13.359375 -0.609375 C 12.671875 0.046875 11.84375 0.375 10.875 0.375 Z M 10.875 0.375 "/></g></g></g><g fill="#00fca8" fill-opacity="1"><g transform="translate(317.386058, 88.163858)"><g><path d="M 7.265625 0.375 C 6.242188 0.375 5.414062 0.046875 4.78125 -0.609375 C 4.144531 -1.273438 3.828125 -2.09375 3.828125 -3.0625 C 3.828125 -3.46875 3.953125 -3.976562 4.203125 -4.59375 L 23.71875 -50.65625 C 24.132812 -51.582031 24.710938 -52.335938 25.453125 -52.921875 C 26.191406 -53.503906 27.09375 -53.796875 28.15625 -53.796875 L 28.921875 -53.796875 C 29.992188 -53.796875 30.898438 -53.503906 31.640625 -52.921875 C 32.378906 -52.335938 32.957031 -51.582031 33.375 -50.65625 L 52.890625 -4.59375 C 53.140625 -3.976562 53.265625 -3.46875 53.265625 -3.0625 C 53.265625 -2.09375 52.945312 -1.273438 52.3125 -0.609375 C 51.675781 0.046875 50.847656 0.375 49.828125 0.375 C 49.109375 0.375 48.453125 0.1875 47.859375 -0.1875 C 47.273438 -0.570312 46.832031 -1.097656 46.53125 -1.765625 L 41.5625 -13.703125 L 15.53125 -13.703125 L 10.5625 -1.765625 C 10.257812 -1.097656 9.8125 -0.570312 9.21875 -0.1875 C 8.632812 0.1875 7.984375 0.375 7.265625 0.375 Z M 18.21875 -20.046875 L 38.875 -20.046875 L 28.546875 -44.921875 Z M 18.21875 -20.046875 "/></g></g></g><g clip-path="url(#b3c77d728d)"><g clip-path="url(#7eae775e19)"><path fill="url(#6cf488d4d4)" d="M 375.390625 72.40625 L 375.390625 88.964844 L 391.945312 88.964844 L 391.945312 72.40625 Z M 375.390625 72.40625 " fill-rule="nonzero"/></g></g></svg>