<?xml version="1.0" standalone="no"?>
<!DOCTYPE svg PUBLIC "-//W3C//DTD SVG 20010904//EN"
 "http://www.w3.org/TR/2001/REC-SVG-20010904/DTD/svg10.dtd">
<svg version="1.0" xmlns="http://www.w3.org/2000/svg"
 width="1162.000000pt" height="1162.000000pt" viewBox="0 0 1162.000000 1162.000000"
 preserveAspectRatio="xMidYMid meet">
<metadata>
Created by potrace 1.14, written by Peter Selinger 2001-2017
</metadata>
<g transform="translate(0.000000,1162.000000) scale(0.100000,-0.100000)"
fill="#000000" stroke="none">
<path d="M5270 11571 c-8 -5 -55 -11 -105 -15 -75 -5 -257 -33 -485 -75 -71
-13 -148 -31 -247 -57 -51 -13 -100 -24 -109 -24 -9 0 -51 -11 -93 -25 -42
-14 -137 -45 -211 -69 -150 -49 -324 -111 -355 -125 -11 -6 -58 -26 -105 -45
-191 -77 -424 -194 -640 -319 -47 -27 -94 -55 -105 -61 -70 -40 -281 -179
-385 -255 -531 -384 -968 -824 -1346 -1356 -91 -127 -182 -272 -321 -505 -48
-81 -213 -401 -213 -414 0 -3 -14 -36 -31 -73 -51 -112 -56 -125 -87 -203 -55
-139 -145 -393 -169 -480 -25 -92 -34 -123 -43 -160 -5 -19 -14 -55 -20 -80
-24 -91 -59 -247 -69 -305 -6 -33 -16 -85 -21 -115 -6 -30 -15 -91 -20 -135
-5 -44 -12 -89 -15 -100 -3 -11 -10 -60 -15 -110 -5 -49 -15 -135 -21 -190
-17 -139 -16 -756 0 -910 7 -66 17 -154 21 -195 11 -99 35 -263 56 -375 9 -49
20 -110 24 -135 5 -25 16 -76 25 -115 9 -38 21 -88 25 -110 8 -37 29 -115 50
-190 5 -16 16 -55 24 -85 13 -53 58 -184 113 -335 131 -361 350 -800 560
-1122 373 -575 800 -1042 1313 -1437 146 -113 188 -144 239 -179 102 -69 342
-227 346 -227 3 0 33 -17 67 -38 35 -21 90 -51 123 -67 33 -16 67 -34 75 -40
21 -17 194 -106 260 -134 88 -37 144 -62 162 -72 10 -5 25 -9 35 -9 9 0 24 -6
32 -13 9 -8 39 -22 66 -31 28 -10 73 -28 100 -40 28 -12 70 -28 95 -35 25 -7
59 -19 75 -26 35 -15 189 -66 255 -84 25 -7 59 -17 77 -22 71 -22 186 -48 371
-84 42 -9 97 -20 122 -24 71 -15 218 -39 300 -50 161 -23 536 -52 584 -47 63
8 86 8 159 0 38 -4 63 -2 72 6 10 8 19 8 34 1 28 -15 77 -14 333 9 232 20 328
32 463 55 123 21 144 25 225 41 41 9 95 19 120 24 106 19 167 31 190 39 27 9
98 29 195 56 348 97 907 335 1185 503 19 12 62 36 95 53 81 43 359 226 474
313 52 39 124 93 160 120 395 295 835 752 1147 1191 97 136 251 372 310 475
105 184 364 721 364 755 0 5 9 27 20 49 35 74 162 473 211 666 20 76 50 222
58 280 5 30 13 73 19 95 19 70 54 305 78 525 12 114 16 874 5 975 -39 343 -55
458 -86 605 -8 36 -19 92 -26 125 -20 108 -55 260 -69 305 -4 14 -18 61 -30
105 -32 113 -122 388 -130 400 -4 6 -17 39 -29 75 -106 311 -426 911 -652
1224 -35 49 -71 98 -79 110 -108 158 -352 445 -559 660 -212 219 -642 569
-922 751 -97 63 -347 215 -354 215 -2 0 -32 16 -67 36 -190 109 -606 299 -753
344 -22 7 -53 18 -70 24 -16 7 -70 25 -120 40 -49 16 -99 32 -110 37 -32 14
-186 61 -230 69 -22 4 -76 17 -120 28 -219 54 -501 105 -679 123 -61 6 -125
15 -142 20 -38 11 -1033 12 -1054 0z m3275 -2430 c289 -17 427 -32 450 -47 30
-20 33 -36 40 -190 4 -71 15 -233 26 -361 26 -293 24 -873 -4 -1008 -9 -44
-21 -114 -27 -155 -7 -41 -15 -82 -18 -90 -3 -8 -15 -51 -27 -95 -76 -273
-232 -564 -424 -790 -19 -22 -212 -217 -428 -434 -416 -417 -409 -408 -384
-473 5 -13 23 -77 40 -143 18 -66 36 -133 40 -150 5 -16 13 -48 19 -70 6 -22
20 -71 31 -110 11 -38 25 -95 32 -125 6 -30 15 -64 20 -75 22 -50 69 -263 69
-313 0 -76 -33 -179 -79 -249 -48 -71 -1555 -1569 -1608 -1597 -35 -19 -36
-19 -70 -1 -35 19 -63 59 -63 92 -1 10 -8 36 -16 58 -9 22 -20 58 -24 80 -14
65 -27 114 -59 225 -17 58 -34 119 -37 135 -3 17 -16 68 -30 115 -13 47 -31
108 -39 135 -8 28 -19 75 -26 105 -6 30 -16 66 -21 80 -5 14 -20 65 -33 114
l-23 89 -103 103 c-57 57 -110 104 -117 104 -7 0 -117 -102 -243 -227 -127
-125 -244 -237 -261 -247 -28 -18 -34 -18 -69 -5 -29 11 -228 203 -818 789
-429 426 -782 784 -783 795 -8 53 7 73 248 310 134 132 244 247 244 255 0 8
-49 63 -110 122 -105 101 -113 107 -167 117 -32 6 -79 18 -105 26 -26 9 -66
20 -90 25 -24 5 -83 20 -133 34 -121 33 -275 74 -360 95 -64 17 -99 26 -240
67 -27 8 -82 21 -121 29 -87 19 -134 56 -134 107 -1 31 56 89 787 816 433 431
807 795 830 808 123 74 279 98 388 62 52 -18 147 -43 223 -59 24 -5 74 -18
110 -29 37 -12 85 -25 107 -30 86 -19 236 -60 254 -70 11 -5 31 -10 45 -10 14
0 35 -4 48 -9 65 -25 139 -41 153 -34 9 5 176 169 373 364 382 380 459 451
593 547 91 66 286 182 305 182 6 0 17 7 24 15 7 8 19 15 26 15 8 0 33 9 57 20
71 32 180 72 222 81 22 4 76 17 120 28 113 28 217 48 310 59 93 11 841 6 1060
-7z m-4950 -4556 c18 -17 25 -35 25 -62 0 -46 18 -27 -421 -461 -320 -317
-326 -322 -366 -322 -34 0 -46 6 -67 31 -56 66 -61 58 312 430 185 185 357
353 380 373 54 45 100 48 137 11z m424 -421 c25 -21 31 -33 31 -67 l0 -42
-672 -668 c-370 -367 -696 -688 -724 -712 -42 -37 -59 -45 -94 -47 -54 -2 -80
25 -80 86 l0 41 644 640 c863 857 798 795 834 795 18 0 43 -10 61 -26z m435
-431 c35 -35 42 -67 21 -99 -22 -35 -706 -712 -742 -735 -35 -23 -70 -16 -107
23 -24 26 -27 36 -22 67 5 31 51 82 352 381 190 190 360 355 377 368 43 30 88
29 121 -5z"/>
<path d="M7525 8969 c-104 -11 -242 -39 -438 -90 -40 -10 -149 -52 -179 -69
-10 -6 -23 -10 -29 -10 -16 0 -218 -112 -294 -163 -125 -84 -271 -215 -596
-538 -643 -639 -1785 -1768 -1906 -1884 -67 -65 -125 -126 -128 -136 -5 -15
84 -108 417 -436 580 -572 1133 -1119 1371 -1355 109 -109 205 -198 214 -198
8 0 57 42 108 92 186 186 1865 1847 2049 2028 327 322 459 490 575 735 29 61
56 119 60 130 34 87 80 246 91 310 5 28 16 88 24 135 38 204 41 674 7 1060 -6
63 -13 163 -17 221 -3 58 -9 112 -14 119 -9 15 -97 25 -355 40 -235 15 -851
20 -960 9z m-283 -684 c175 -28 324 -88 478 -192 89 -60 228 -198 286 -286 55
-82 124 -220 143 -287 8 -25 17 -56 22 -70 41 -126 41 -446 0 -570 -5 -14 -15
-45 -22 -70 -7 -25 -30 -82 -51 -127 -158 -337 -464 -567 -848 -638 -465 -86
-977 160 -1199 577 -121 227 -169 501 -125 715 36 175 54 232 105 334 136 270
385 481 679 575 161 52 364 67 532 39z m-1525 -2079 c185 -40 336 -188 374
-368 7 -31 9 -91 6 -147 -5 -82 -10 -104 -42 -168 -65 -130 -184 -226 -331
-263 -97 -25 -122 -25 -220 0 -183 47 -310 169 -364 350 -49 166 3 343 139
474 118 112 277 156 438 122z"/>
<path d="M6910 8104 c-258 -38 -503 -196 -659 -426 -46 -68 -105 -203 -120
-273 -7 -33 -17 -80 -23 -105 -12 -57 -12 -213 1 -271 5 -24 15 -71 22 -104
38 -181 189 -401 359 -526 159 -116 380 -189 570 -189 129 0 322 47 440 108
372 192 572 589 506 1002 -65 403 -396 726 -806 785 -113 17 -176 16 -290 -1z
m719 -360 c25 -21 31 -33 31 -66 0 -32 -8 -49 -41 -88 l-41 -49 31 -62 c17
-34 31 -72 31 -84 0 -12 5 -36 11 -54 15 -42 4 -94 -27 -131 -20 -24 -34 -30
-64 -30 -59 0 -79 23 -91 104 -17 126 -70 214 -153 252 -65 30 -120 31 -177 1
-60 -32 -83 -74 -81 -153 1 -72 6 -84 74 -168 27 -33 59 -81 70 -106 12 -25
26 -56 32 -69 6 -13 10 -64 10 -115 -1 -82 -4 -97 -34 -154 -94 -181 -292
-241 -497 -151 l-42 18 -46 -39 c-57 -49 -99 -53 -139 -14 -39 40 -36 95 9
145 l34 38 -23 53 c-29 67 -51 204 -38 238 21 54 75 77 128 55 41 -17 50 -34
58 -120 11 -109 71 -186 175 -222 119 -42 231 36 231 161 0 62 -18 101 -86
182 -59 71 -87 128 -101 208 -28 163 41 307 181 379 52 26 75 31 151 35 79 3
99 1 159 -22 37 -14 74 -26 81 -26 6 0 30 18 53 40 49 48 86 52 131 14z"/>
<path d="M5510 6017 c-95 -33 -154 -99 -192 -213 -19 -58 -20 -72 -10 -110 39
-147 114 -223 256 -260 55 -15 89 -10 183 27 75 30 140 112 163 207 30 127
-38 274 -155 334 -49 25 -191 34 -245 15z"/>
<path d="M4280 7888 c-62 -24 -72 -33 -873 -828 -252 -250 -492 -487 -534
-527 -86 -82 -91 -104 -28 -115 22 -3 96 -23 165 -43 69 -20 145 -40 170 -45
25 -5 79 -19 120 -31 41 -11 92 -25 113 -30 20 -5 54 -13 75 -18 41 -10 180
-48 226 -62 68 -21 41 -45 803 714 399 397 734 730 745 740 33 31 24 42 -44
56 -86 19 -243 61 -260 71 -10 6 -27 10 -37 10 -19 0 -49 7 -206 51 -181 51
-303 79 -340 78 -22 0 -65 -10 -95 -21z"/>
<path d="M3903 5436 c-106 -107 -193 -201 -193 -208 0 -19 1368 -1370 1393
-1376 7 -1 101 85 211 191 175 171 197 196 188 213 -6 11 -86 93 -179 183 -92
90 -400 395 -684 677 -284 283 -522 514 -530 514 -8 0 -101 -88 -206 -194z"/>
<path d="M6806 4657 l-748 -743 17 -60 c35 -118 44 -150 55 -204 7 -30 18 -71
26 -90 7 -19 20 -66 29 -105 8 -38 19 -79 24 -90 5 -11 16 -49 25 -85 56 -230
90 -340 102 -340 4 0 163 155 353 345 190 189 508 505 707 702 227 225 369
373 382 399 35 69 46 129 33 177 -6 23 -18 65 -25 92 -8 28 -22 77 -31 110 -9
33 -21 74 -26 91 -5 17 -9 40 -9 51 0 12 -9 40 -20 64 -11 24 -20 53 -20 64 0
11 -9 49 -19 85 -11 36 -33 112 -49 170 -18 64 -35 106 -43 107 -8 2 -351
-332 -763 -740z"/>
</g>
</svg>
